<?xml version="1.0" encoding="utf-8"?>
<svg viewBox="43.8671 168.419 397.6492 404.9021" width="397.6492" height="404.9021" xmlns="http://www.w3.org/2000/svg" xmlns:xlink="http://www.w3.org/1999/xlink">
  <defs>
    <pattern id="pattern-0-0" patternTransform="matrix(1, 0, 0, 1, 3123.795044, 2833)" xlink:href="#pattern-0"/>
    <pattern x="0" y="0" width="25" height="25" patternUnits="userSpaceOnUse" viewBox="0 0 100 100" id="pattern-0">
      <rect x="0" y="0" width="50" height="100" style="fill: black;"/>
    </pattern>
    <linearGradient gradientUnits="userSpaceOnUse" x1="3290.194" y1="2451.177" x2="3290.194" y2="3040" id="gradient-0">
      <stop offset="0" style="stop-color: rgb(17.255% 15.294% 15.294%)"/>
      <stop offset="1" style="stop-color: rgb(11.958% 10.112% 10.116%)"/>
    </linearGradient>
  </defs>
  <g transform="matrix(0.10000000149011612, 0, 0, -0.10000000149011612, 27.516365051269517, 579.0211181640625)" fill="#000000" stroke="none">
    <path d="M2306 4103 c-11 -11 -6 -23 9 -23 8 0 15 4 15 9 0 13 -16 22 -24 14z"/>
    <path d="M2512 4080 c-7 -12 -21 -24 -31 -28 -16 -6 -14 -11 16 -38 31 -29 34 -30 43 -14 6 10 19 22 30 25 27 9 25 19 -5 33 -14 6 -25 18 -25 27 0 21 -13 19 -28 -5z" style="fill: rgb(198, 171, 36);"/>
    <path d="M1657 4076 c-4 -9 -13 -16 -22 -16 -16 0 -20 -15 -6 -24 5 -3 7 -16 4 -27 -5 -19 -4 -20 15 -10 11 6 28 8 38 4 12 -4 15 -3 10 6 -5 7 0 21 10 32 16 18 16 19 -4 19 -12 0 -25 7 -30 16 -8 15 -10 15 -15 0z" style="fill: rgb(230, 213, 31);"/>
    <path d="M1792 4068 c6 -18 28 -21 28 -4 0 9 -7 16 -16 16 -9 0 -14 -5 -12 -12z"/>
    <path d="M1733 3902 c-194 -91 -353 -168 -353 -172 0 -4 165 -80 233 -106 10 -4 18 8 25 39 6 24 21 52 33 63 22 19 22 19 15 -1 -4 -11 -10 -43 -13 -72 l-6 -52 64 -20 c35 -12 53 -19 39 -16 -113 22 -131 14 -37 -17 49 -17 26 -18 -37 -2 -24 6 -26 4 -26 -29 l0 -34 138 -22 c272 -42 337 -42 612 3 52 9 97 16 100 16 3 0 7 14 8 30 3 34 6 34 -73 15 -33 -8 -76 -14 -95 -14 l-35 1 45 13 45 12 -30 7 c-36 9 -105 37 -110 46 -2 3 12 4 31 2 19 -2 34 -2 34 2 0 3 -21 17 -47 30 -27 14 -46 25 -43 26 3 0 61 -18 130 -40 69 -22 131 -40 139 -40 11 0 12 14 7 68 -4 37 -10 76 -13 87 -12 40 29 -8 54 -63 19 -45 23 -69 23 -162 0 -62 -4 -111 -10 -115 -15 -10 -12 -61 5 -75 13 -11 14 -30 9 -116 -7 -104 -7 -104 16 -104 23 0 23 0 16 109 -6 93 -5 109 9 114 20 8 20 63 0 75 -13 7 -15 29 -13 127 l3 119 104 47 105 48 -75 34 c-41 19 -205 95 -364 170 -160 76 -295 137 -300 136 -6 -1 -169 -76 -362 -167z" style="fill: rgb(29, 32, 29);"/>
    <path d="M2820 4010 c-30 -24 -42 -24 -81 -5 l-30 16 16 -37 c19 -45 20 -37 -15 -77 l-30 -35 44 5 c42 5 45 4 61 -27 18 -34 31 -31 37 10 2 20 10 26 41 31 51 8 53 13 13 38 -19 12 -33 27 -31 34 11 36 14 67 8 67 -5 0 -19 -9 -33 -20z" style="fill: rgb(241, 248, 8);"/>
    <path d="M1393 3970 c-8 -21 -18 -30 -35 -31 -20 -1 -21 -2 -3 -6 29 -7 43 -21 47 -46 3 -20 5 -20 18 8 8 16 26 32 40 35 l25 6 -27 7 c-16 4 -28 11 -28 15 0 5 -6 16 -13 25 -11 16 -13 15 -24 -13z" style="fill: rgb(246, 175, 12);"/>
    <path d="M3110 3921 c-37 -12 -10 -19 90 -23 73 -4 94 -9 146 -37 73 -38 129 -93 121 -115 -4 -9 -29 -29 -56 -46 l-50 -31 21 -47 c27 -60 27 -134 1 -194 -23 -51 -33 -60 -52 -49 -9 6 -8 16 8 42 60 104 16 232 -94 275 -159 60 -308 -101 -234 -253 28 -58 33 -107 13 -138 -13 -19 -13 -24 0 -34 12 -10 18 -7 31 19 12 23 21 30 33 25 9 -3 29 -9 45 -12 20 -4 27 -11 27 -29 0 -22 4 -24 44 -24 24 0 57 3 74 6 28 6 30 9 21 26 -6 11 -8 22 -6 25 3 2 10 -5 17 -16 16 -31 32 -26 20 5 -9 21 -7 29 7 40 15 11 21 10 39 -7 28 -26 39 -11 12 18 -25 27 -5 33 24 6 13 -11 22 -13 29 -6 7 7 2 17 -17 32 -31 24 -20 29 14 5 21 -14 42 -12 42 5 0 4 -11 14 -25 21 -35 19 -23 26 16 10 31 -13 33 -12 66 23 18 20 39 37 46 37 9 0 9 2 -1 9 -7 4 -13 23 -12 42 0 19 -3 52 -6 74 -3 22 -7 50 -8 63 0 12 -4 22 -7 22 -3 0 -18 22 -33 50 -35 64 -116 135 -186 161 -59 23 -179 34 -220 20z m410 -283 c0 -10 -11 -19 -31 -23 -36 -8 -37 -7 -45 31 -5 26 -2 31 23 40 24 9 30 7 40 -10 7 -12 12 -29 13 -38z m-280 26 c112 -45 117 -200 8 -253 -53 -25 -66 -26 -118 -5 -106 42 -112 200 -10 254 44 24 69 24 120 4z m289 -150 c2 -2 2 -6 -1 -9 -8 -8 -68 7 -68 17 0 9 58 2 69 -8z" style="fill: rgb(167, 197, 20);"/>
    <path d="M3153 3638 c-46 -12 -73 -51 -73 -105 0 -38 5 -50 35 -80 32 -32 40 -35 76 -30 46 6 76 29 94 72 35 84 -41 167 -132 143z m97 -43 c26 -23 34 -70 20 -105 -14 -35 -69 -63 -105 -54 -30 8 -75 58 -75 85 0 27 26 76 47 89 24 14 90 6 113 -15z"/>
    <path d="M3154 3588 c-52 -25 -49 -105 6 -128 23 -9 34 -9 58 4 52 27 49 100 -5 125 -28 13 -31 13 -59 -1z m39 -68 c3 -11 2 -22 -3 -25 -11 -7 -33 22 -25 35 10 16 22 12 28 -10z" style="fill: rgb(120, 244, 9);"/>
    <path d="M3049 3908 c-6 -30 -2 -92 10 -125 l15 -41 71 5 c81 6 130 -6 175 -43 l29 -25 38 35 c21 20 33 36 27 36 -6 0 -17 -7 -24 -15 -12 -14 -40 -21 -40 -10 0 4 7 19 15 35 17 34 2 42 -17 10 -26 -42 -51 -13 -28 31 15 27 2 24 -22 -6 -24 -31 -42 -23 -34 16 7 36 -9 39 -18 3 -9 -36 -42 -29 -38 9 2 15 -1 27 -7 27 -6 0 -11 -14 -11 -31 0 -24 -4 -30 -17 -27 -11 2 -19 14 -21 31 -4 37 -22 34 -22 -4 0 -47 -22 -30 -40 31 -9 29 -21 55 -28 58 -6 2 -12 2 -13 0z" style="fill: rgb(201, 239, 11);"/>
    <path d="M1130 3897 c0 -2 5 -18 11 -35 10 -28 8 -35 -15 -63 -15 -17 -25 -33 -23 -35 2 -2 18 0 35 5 28 8 34 6 56 -20 l25 -29 3 27 c2 20 11 29 38 38 l34 12 -28 18 c-24 16 -27 23 -21 53 l6 34 -29 -17 c-27 -16 -31 -16 -60 -1 -18 9 -32 15 -32 13z" style="fill: rgb(236, 207, 23);"/>
    <path d="M2945 3765 c-60 -62 -88 -137 -87 -237 0 -54 6 -89 21 -122 21 -50 42 -58 77 -31 18 15 18 15 -11 13 -32 -3 -49 19 -61 81 -6 27 -4 31 15 31 11 0 21 5 21 10 0 6 -9 10 -20 10 -22 0 -26 28 -14 89 5 25 11 31 33 31 25 1 25 1 7 15 -19 15 -19 16 10 57 26 37 35 43 62 41 30 -3 31 -2 20 27 -5 17 -14 30 -19 30 -6 0 -30 -20 -54 -45z"/>
    <path d="M1100 3686 c0 -10 9 -16 21 -16 24 0 21 23 -4 28 -10 2 -17 -3 -17 -12z"/>
    <path d="M953 3682 c-10 -7 -10 -12 0 -26 16 -22 47 -12 40 15 -6 20 -20 24 -40 11z"/>
    <path d="M1260 3650 c0 -14 38 -32 45 -21 3 6 -3 15 -14 20 -24 14 -31 14 -31 1z"/>
    <path d="M1015 3627 c-135 -45 -234 -145 -279 -280 -5 -14 -14 -18 -43 -15 -36 3 -38 2 -38 -27 0 -27 4 -31 35 -35 32 -5 35 -8 42 -49 4 -23 10 -51 13 -60 4 -13 -5 -22 -34 -36 -40 -18 -40 -18 -25 -46 14 -29 15 -29 50 -14 49 20 51 20 73 -16 19 -31 19 -31 -1 -51 -19 -19 -19 -20 -1 -40 10 -11 31 -29 46 -40 l28 -20 23 21 c19 18 26 19 53 9 25 -9 30 -17 29 -41 -1 -25 4 -31 27 -38 21 -6 29 -4 33 7 2 8 6 21 9 29 8 26 52 18 75 -15 12 -16 27 -30 34 -30 12 0 237 130 264 152 10 9 9 15 -3 34 -12 19 -13 28 -3 49 12 26 19 27 59 11 12 -6 19 1 28 25 6 18 10 33 9 34 -2 0 -15 6 -31 13 -25 11 -27 15 -21 54 8 52 5 49 40 51 22 2 30 8 32 25 3 19 -1 22 -32 22 -20 0 -36 3 -36 8 0 4 -4 24 -9 45 -8 35 -7 39 19 52 21 11 27 20 23 36 -12 46 -9 48 -343 -141 -248 -140 -290 -163 -290 -156 0 2 24 19 53 36 28 18 72 49 97 70 25 20 102 74 173 120 70 46 127 88 127 93 0 5 -69 -27 -152 -71 -84 -43 -199 -103 -255 -132 -98 -51 -102 -54 -100 -84 3 -46 -14 -47 -30 -1 -10 26 -13 66 -10 115 7 127 73 226 186 279 47 22 70 26 141 26 100 0 147 -20 222 -92 44 -43 77 -51 63 -15 -3 8 3 25 15 37 20 21 20 22 1 39 -16 14 -22 15 -39 5 -17 -11 -29 -8 -84 21 -54 29 -75 34 -143 37 -48 2 -96 -3 -120 -10z m405 -301 c28 -150 -65 -310 -211 -361 -23 -8 -74 -15 -113 -15 -58 0 -82 5 -131 29 -57 27 -105 64 -105 79 1 4 62 43 136 87 75 44 195 119 267 167 72 48 134 85 138 82 4 -2 12 -32 19 -68z" style="fill: rgb(219, 219, 28);"/>
    <path d="M1335 3313 c-22 -13 -45 -27 -52 -31 -10 -6 -9 -18 2 -56 8 -27 15 -71 15 -98 0 -63 15 -60 54 12 21 38 30 72 34 120 2 37 1 69 -4 72 -5 3 -27 -6 -49 -19z" style="fill: rgb(58, 239, 21);"/>
    <path d="M1163 3219 l-72 -40 19 -32 c11 -18 39 -54 63 -82 41 -46 46 -49 70 -38 41 19 46 78 16 196 -5 20 -13 37 -17 37 -4 -1 -39 -19 -79 -41z" style="fill: rgb(91, 223, 40);"/>
    <path d="M977 3114 l-77 -46 24 -19 c64 -51 179 -76 244 -55 23 8 23 8 -12 46 -20 22 -47 57 -61 80 -14 22 -29 40 -33 40 -4 -1 -42 -21 -85 -46z" style="fill: rgb(69, 221, 19);"/>
    <path d="M822 3608 c-13 -13 2 -38 23 -38 21 0 36 25 23 38 -7 7 -17 12 -23 12 -6 0 -16 -5 -23 -12z"/>
    <path d="M1110 3554 c14 -10 41 -32 61 -51 l36 -34 31 18 c34 19 41 33 17 33 -8 0 -15 4 -15 9 0 12 -87 41 -124 41 l-30 0 24 -16z" style="fill: rgb(92, 211, 16);"/>
    <path d="M 2740 3521.568 C 2740 3516.568 2733 3511.568 2724 3511.568 C 2713 3511.568 2710 3505.568 2716 3489.568 C 2724 3462.568 2740 3449.568 2758 3456.568 C 2766 3459.568 2775 3461.568 2778 3461.568 C 2782 3461.568 2785 3472.568 2785 3486.568 C 2785 3500.568 2779 3511.568 2773 3511.568 C 2766 3511.568 2760 3516.568 2760 3521.568 C 2760 3527.568 2756 3531.568 2750 3531.568 C 2745 3531.568 2740 3527.568 2740 3521.568 Z" style="fill: rgb(226, 221, 35);"/>
    <path d="M961 3541 c-12 -8 -10 -23 13 -95 16 -48 31 -88 35 -90 3 -2 43 19 89 46 83 49 83 50 65 70 -36 42 -105 78 -147 78 -23 0 -47 -4 -55 -9z" style="fill: rgb(47, 223, 19);"/>
    <path d="M881 3485 c-17 -19 -37 -48 -45 -63 -28 -54 -42 -182 -19 -182 12 0 163 93 163 101 0 5 -7 26 -16 47 -9 20 -22 58 -30 85 -8 26 -16 47 -18 47 -2 0 -18 -16 -35 -35z" style="fill: rgb(37, 219, 32);"/>
    <path d="M706 3483 c-12 -13 -5 -33 15 -44 17 -9 23 -8 30 2 5 8 9 17 9 20 0 9 -47 28 -54 22z"/>
    <path d="M1680 3393 c0 -21 7 -63 15 -93 19 -70 19 -70 -4 -70 -38 0 -45 -24 -31 -108 16 -99 32 -139 68 -159 24 -14 30 -26 40 -81 7 -46 18 -72 36 -91 20 -21 26 -37 26 -73 0 -79 8 -87 144 -162 l126 -68 127 68 128 69 3 65 c2 47 8 70 22 85 28 30 50 89 50 135 0 37 3 42 30 52 39 13 55 44 74 147 18 93 11 121 -29 121 -24 0 -24 0 -9 42 8 24 18 69 21 102 6 54 5 58 -13 53 -10 -3 -105 -18 -211 -32 l-192 -27 -188 26 c-103 14 -198 29 -210 31 -21 5 -23 2 -23 -32z" style="fill: rgb(163, 94, 94);"/>
    <path d="M2752 3389 c2 -6 8 -10 13 -10 5 0 11 4 13 10 2 6 -4 11 -13 11 -9 0 -15 -5 -13 -11z"/>
    <path d="M3675 3340 c10 -11 20 -20 23 -20 3 0 -3 9 -13 20 -10 11 -20 20 -23 20 -3 0 3 -9 13 -20z"/>
    <path d="M3547 3344 c-3 -4 15 -23 41 -44 26 -20 60 -49 75 -64 23 -21 32 -24 48 -16 27 15 24 22 -18 56 -74 58 -130 84 -146 68z"/>
    <path d="M3340 3323 c0 -14 19 -38 25 -32 8 8 -5 39 -16 39 -5 0 -9 -3 -9 -7z"/>
    <path d="M3750 3278 c24 -27 45 -48 47 -48 8 0 0 9 -44 50 l-48 45 45 -47z"/>
    <path d="M2771 3283 c-55 -29 -76 -65 -76 -131 1 -31 7 -70 14 -87 12 -28 10 -37 -28 -126 -22 -53 -41 -101 -41 -107 0 -5 18 -17 40 -26 47 -19 53 -30 10 -21 -33 7 -41 -9 -14 -29 13 -10 14 -16 3 -39 -7 -15 -9 -30 -5 -34 10 -10 50 42 92 120 19 38 42 71 50 74 8 3 25 26 38 50 16 32 36 52 71 71 144 80 97 287 -68 299 -37 3 -62 -1 -86 -14z m103 -68 c13 -14 29 -25 37 -25 10 0 10 -3 1 -12 -16 -16 -15 -28 2 -28 18 0 40 -27 28 -34 -16 -10 -82 6 -82 20 0 16 -16 19 -25 4 -9 -15 -25 -12 -25 4 0 7 -9 16 -20 19 -30 8 -25 44 8 61 38 21 50 20 76 -9z m-46 -101 c13 -9 29 -13 37 -10 16 6 20 -9 16 -54 -3 -35 -21 -51 -21 -19 0 14 -5 30 -12 37 -19 19 -56 14 -70 -8 -20 -31 -30 -23 -13 10 14 28 13 34 -7 31 -10 -1 -10 13 -1 22 11 12 48 7 71 -9z m-25 -131 c19 -6 22 -20 8 -42 -8 -12 -14 -12 -40 -1 -32 13 -35 18 -25 45 4 10 12 14 23 9 9 -3 24 -9 34 -11z m-29 -98 c-8 -19 -25 -19 -49 -1 -11 8 -16 19 -12 30 6 15 9 15 36 1 20 -10 28 -20 25 -30z m-56 -31 c12 -4 22 -13 22 -20 0 -17 -2 -17 -35 -2 -41 19 -33 34 13 22z" style="fill: rgb(181, 145, 73);"/>
    <path d="M3455 3250 c-15 -16 -33 -26 -39 -23 -6 4 24 -26 66 -66 42 -39 81 -71 85 -70 4 1 23 15 42 31 l33 29 -23 26 c-29 31 -118 103 -128 103 -4 0 -20 -13 -36 -30z" style="fill: rgb(135, 106, 106);"/>
    <path d="M446 3219 c-37 -29 -37 -89 0 -118 58 -46 134 -11 134 60 0 70 -77 103 -134 58z m92 -11 c21 -21 15 -75 -10 -92 -30 -21 -44 -20 -68 4 -24 24 -26 57 -3 82 18 20 63 24 81 6z"/>
    <path d="M472 3188 c-29 -29 -1 -75 38 -63 17 5 20 13 18 38 -3 35 -33 48 -56 25z"/>
    <path d="M3273 3134 c-468 -415 -577 -514 -565 -514 9 1 -1 -7 375 329 169 150 307 275 307 277 0 10 -15 -2 -117 -92z"/>
    <path d="M3738 3194 c-15 -15 -12 -21 36 -78 28 -33 62 -78 75 -99 l24 -39 -22 -21 -22 -22 -20 25 c-68 84 -146 170 -155 170 -5 0 -25 -15 -43 -34 l-34 -35 47 -53 c25 -29 46 -56 46 -60 0 -4 -126 -120 -281 -259 l-281 -251 38 -39 38 -39 31 28 c106 98 480 423 595 516 47 38 92 78 102 90 15 19 15 22 -13 62 -33 48 -128 154 -138 154 -4 0 -14 -7 -23 -16z" style="fill: rgb(110, 174, 97);"/>
    <path d="M3101 3176 c-8 -10 -11 -26 -7 -42 5 -20 12 -25 33 -22 14 2 31 11 37 21 23 36 -36 76 -63 43z" style="fill: rgb(147, 163, 13);"/>
    <path d="M3085 2914 c-170 -151 -319 -284 -330 -295 -19 -19 -19 -19 20 -52 21 -17 60 -40 87 -49 l49 -17 107 96 c59 53 130 117 157 141 28 25 119 106 203 180 83 74 152 138 152 141 0 8 -123 131 -130 131 -3 0 -144 -124 -315 -276z m350 216 c10 -11 15 -26 11 -36 -6 -15 -8 -15 -31 0 -33 22 -42 20 -20 -4 14 -16 16 -23 7 -32 -9 -9 -17 -7 -32 7 -26 24 -39 11 -15 -15 14 -15 16 -23 7 -32 -9 -9 -17 -7 -32 7 -25 23 -39 12 -17 -13 13 -14 14 -21 5 -30 -9 -9 -16 -8 -30 5 -25 22 -36 8 -13 -17 16 -18 16 -20 1 -26 -10 -4 -25 1 -36 11 -16 15 -20 15 -20 4 0 -8 5 -20 12 -27 9 -9 9 -15 1 -23 -8 -8 -19 -6 -39 8 l-29 18 18 -28 c29 -44 7 -62 -34 -28 l-23 19 34 28 c33 28 106 94 200 181 25 24 48 43 51 43 3 0 14 -9 24 -20z m-293 -264 c15 -21 16 -25 3 -36 -13 -10 -19 -9 -35 5 -16 14 -20 15 -20 4 0 -8 5 -20 12 -27 9 -9 9 -15 0 -24 -9 -9 -16 -7 -32 7 -11 10 -23 15 -27 12 -3 -4 2 -16 12 -27 14 -15 16 -23 7 -32 -9 -9 -17 -7 -32 7 -25 23 -39 12 -16 -14 15 -16 15 -19 1 -31 -13 -11 -19 -10 -35 5 -11 10 -22 16 -25 13 -3 -3 1 -11 10 -18 8 -7 15 -18 15 -25 0 -20 -23 -24 -43 -7 -23 20 -35 7 -13 -17 14 -15 14 -20 3 -29 -10 -9 -19 -8 -35 4 -25 17 -28 13 -10 -16 10 -15 10 -22 0 -32 -9 -9 -16 -7 -32 7 -25 23 -39 12 -16 -14 14 -15 14 -20 3 -29 -11 -9 -19 -7 -35 11 l-21 22 87 81 c48 44 119 108 159 142 39 34 75 66 78 72 9 15 18 12 37 -14z" style="fill: url('#pattern-0-0');"/>
    <path d="M3509 3007 c-19 -17 -147 -132 -285 -253 -137 -122 -257 -231 -267 -242 -18 -19 -17 -20 44 -41 76 -25 93 -26 85 -5 -3 8 -2 13 3 9 13 -7 41 5 41 18 0 6 -7 19 -17 29 -24 27 -7 35 20 10 25 -24 40 -20 30 6 -5 11 -2 14 9 10 8 -4 21 -2 28 2 11 7 11 11 -1 26 -13 16 -12 17 6 6 16 -8 24 -7 38 5 16 15 16 17 0 35 -22 25 -8 36 17 13 29 -26 38 -9 10 20 -30 32 -18 46 14 16 25 -24 49 -21 40 3 -3 9 1 13 13 13 14 -2 17 4 15 23 -2 19 0 22 9 13 9 -9 16 -10 26 -2 10 9 9 16 -7 37 -26 32 -17 42 13 14 29 -27 41 -28 34 -2 -4 17 -2 20 14 15 14 -5 19 -2 19 10 0 11 5 15 14 12 20 -8 28 19 10 33 -8 7 -14 17 -14 23 0 5 8 3 18 -6 26 -24 36 -21 18 5 -24 34 -19 44 8 19 30 -28 52 -20 34 12 -10 20 -10 21 5 9 20 -17 38 -7 30 14 -5 13 -1 15 14 10 12 -4 25 -1 32 8 10 12 5 23 -30 60 -23 25 -44 46 -48 46 -3 0 -22 -15 -42 -33z" style="fill: url('#gradient-0');"/>
    <path d="M456 2985 c-11 -8 -32 -15 -47 -15 -33 0 -72 -44 -64 -71 8 -23 -11 -59 -30 -59 -24 0 -19 -53 6 -68 17 -11 20 -20 16 -47 -6 -34 15 -65 43 -65 7 0 33 -12 58 -26 38 -23 51 -25 95 -20 28 4 61 16 75 27 14 10 33 19 42 19 23 0 57 50 41 60 -17 10 4 60 25 60 12 0 15 6 10 23 -3 12 -6 28 -6 35 0 6 -9 12 -19 12 -23 0 -37 35 -22 54 9 11 5 21 -14 45 -21 24 -32 29 -54 25 -18 -4 -32 0 -40 10 -17 20 -89 21 -115 1z m74 -14 c0 -10 -26 -9 -36 2 -4 4 2 7 14 7 12 0 22 -4 22 -9z m-117 -17 c3 -3 -3 -15 -13 -27 -24 -25 -36 -17 -20 12 11 21 22 26 33 15z m231 -10 c4 -9 4 -19 2 -21 -8 -8 -26 8 -26 23 0 19 16 18 24 -2z m-48 -38 c19 -19 34 -44 34 -57 0 -22 -2 -21 -20 9 -27 44 -80 67 -125 52 -42 -14 -63 -38 -80 -92 l-14 -43 0 40 c-1 75 50 125 128 125 36 0 49 -6 77 -34z m-51 -66 c37 -40 -7 -101 -56 -77 -30 15 -36 52 -13 78 22 24 46 24 69 -1z m21 -95 c-11 -8 -25 -15 -30 -15 -6 1 0 7 14 15 32 19 40 18 16 0z" style="fill: rgb(58, 120, 124);"/>
    <path d="M493 2814 c-8 -21 13 -42 28 -27 13 13 5 43 -11 43 -6 0 -13 -7 -17 -16z" style="fill: rgb(75, 121, 158);"/>
    <path d="M2602 2988 c6 -18 28 -21 28 -4 0 9 -7 16 -16 16 -9 0 -14 -5 -12 -12z"/>
    <path d="M1325 2899 c-157 -92 -157 -92 -114 -118 19 -12 36 -21 40 -21 3 0 51 27 107 60 90 54 102 64 101 88 -1 67 -5 66 -134 -9z" style="fill: rgb(181, 33, 136);"/>
    <path d="M1586 2955 c-16 -12 -16 -16 -5 -32 11 -14 20 -17 39 -12 14 4 21 7 16 8 -5 1 -3 8 4 16 10 12 10 15 -4 15 -9 0 -16 5 -16 10 0 14 -11 12 -34 -5z" style="fill: rgb(200, 196, 57);"/>
    <path d="M2530 2864 c0 -17 22 -14 28 4 2 7 -3 12 -12 12 -9 0 -16 -7 -16 -16z"/>
    <path d="M1363 2797 c-78 -49 -81 -53 -76 -82 3 -16 7 -32 9 -34 2 -3 129 75 197 120 13 9 -15 49 -33 48 -8 -1 -52 -24 -97 -52z" style="fill: rgb(236, 35, 203);"/>
    <path d="M3882 2835 c-29 -8 -68 -23 -88 -33 l-36 -19 46 -1 c117 -5 174 -85 132 -185 -30 -73 -122 -93 -177 -38 -41 42 -41 106 0 150 38 41 20 50 -29 16 -44 -31 -130 -119 -130 -134 0 -5 -3 -18 -7 -28 -3 -10 13 3 36 30 24 26 47 47 53 47 5 0 -13 -25 -41 -56 -28 -30 -51 -60 -51 -65 0 -4 13 -6 28 -3 39 8 65 -22 37 -42 -13 -10 -22 -11 -32 -3 -9 8 -13 8 -13 1 0 -17 49 -51 91 -63 100 -30 249 72 278 190 48 195 49 214 19 235 -27 19 -46 19 -116 1z m112 -18 c9 -15 7 -21 -9 -33 -10 -8 -24 -13 -29 -11 -17 6 -29 34 -23 51 9 22 46 17 61 -7z" style="fill: rgb(109, 181, 245);"/>
    <path d="M820 2810 c-12 -7 -12 -12 -2 -22 9 -9 15 -9 24 0 16 16 -2 34 -22 22z" style="fill: rgb(228, 171, 42);"/>
    <path d="M1610 2785 c-26 -32 13 -81 48 -59 34 22 22 74 -18 74 -10 0 -23 -7 -30 -15z" style="fill: rgb(219, 188, 92);"/>
    <path d="M3683 2730 c-61 -49 -82 -70 -66 -70 4 1 37 28 73 60 35 33 62 60 60 60 -3 -1 -33 -23 -67 -50z"/>
    <path d="M1012 2759 c2 -6 8 -10 13 -10 5 0 11 4 13 10 2 6 -4 11 -13 11 -9 0 -15 -5 -13 -11z"/>
    <path d="M1413 2724 c-72 -45 -80 -59 -44 -81 15 -9 29 -5 80 25 55 33 61 40 56 62 -4 14 -10 28 -13 32 -4 4 -40 -13 -79 -38z"/>
    <path d="M2524 2756 c-12 -31 0 -51 31 -51 27 0 30 3 30 30 0 25 -4 30 -28 33 -17 2 -29 -2 -33 -12z" style="fill: rgb(250, 245, 52);"/>
    <path d="M918 2647 c-2 -53 -6 -99 -9 -101 -3 -3 -21 -1 -40 4 -30 8 -189 29 -189 25 0 -1 32 -23 71 -49 55 -37 69 -51 64 -64 -21 -51 -37 -104 -32 -108 2 -3 31 11 63 31 33 19 63 35 68 35 4 0 37 -20 72 -45 35 -24 64 -39 64 -32 0 7 -7 34 -15 61 -8 27 -15 55 -15 62 0 8 30 34 67 59 62 41 65 45 38 44 -17 0 -66 -6 -110 -13 -44 -8 -82 -12 -84 -10 -3 2 5 14 17 27 27 29 27 31 -2 108 l-23 63 -5 -97z" style="fill: rgb(184, 153, 43);"/>
    <path d="M3804 2720 c-78 -32 -66 -157 16 -175 32 -7 87 26 100 61 26 67 -50 142 -116 114z m72 -72 c9 -30 -29 -62 -57 -48 -18 10 -26 50 -12 63 3 4 19 7 34 7 20 0 30 -6 35 -22z"/>
    <path d="M1135 2706 c-24 -17 -13 -46 19 -46 27 0 42 26 25 46 -14 17 -20 17 -44 0z" style="fill: rgb(194, 185, 36);"/>
    <path d="M1465 2654 c-33 -20 -62 -38 -64 -40 -3 -3 7 -16 21 -30 l26 -26 46 27 c25 15 48 30 50 33 6 10 -5 72 -13 72 -3 -1 -33 -17 -66 -36z" style="fill: rgb(19, 212, 212);"/>
    <path d="M2427 2550 c4 -111 2 -171 -12 -255 -30 -192 -111 -482 -191 -682 -49 -123 -116 -263 -125 -263 -22 0 -157 324 -212 505 -95 316 -120 460 -115 674 2 83 -1 151 -5 151 -12 0 -64 -59 -98 -111 -39 -61 -102 -207 -94 -219 3 -6 21 -10 40 -10 54 0 50 -17 -7 -33 -100 -29 -140 -38 -144 -34 -2 2 16 50 41 107 25 57 43 105 41 107 -2 2 -97 -26 -210 -62 -192 -62 -207 -69 -213 -93 -3 -15 -26 -101 -49 -191 -24 -90 -44 -169 -44 -176 0 -6 17 -17 38 -24 55 -20 308 -148 372 -188 85 -55 164 -118 289 -231 144 -130 218 -191 206 -172 -5 8 -54 75 -109 149 -188 255 -437 648 -414 656 7 2 60 13 118 25 58 12 114 24 125 27 11 3 -15 -18 -57 -46 -43 -28 -78 -54 -78 -59 0 -11 192 -326 270 -443 95 -142 283 -398 298 -403 19 -8 35 2 63 42 14 20 74 104 132 185 58 82 134 194 170 250 88 140 169 273 201 328 l26 46 -77 52 c-43 29 -69 50 -58 48 11 -3 67 -15 125 -27 58 -12 110 -25 116 -29 19 -11 -303 -510 -458 -711 -35 -45 -70 -91 -78 -103 -17 -25 74 51 240 199 168 150 243 208 355 275 87 52 284 139 314 139 16 0 15 7 -34 199 -56 215 -57 217 -92 225 -15 4 -105 32 -198 62 -94 30 -175 54 -182 54 -7 0 7 -42 33 -101 49 -114 51 -122 27 -116 -119 33 -173 51 -173 58 0 5 20 9 45 9 25 0 45 4 45 10 0 5 -25 61 -55 124 -37 77 -70 131 -104 167 l-50 54 6 -145z" style="fill: rgb(15, 15, 14);"/>
    <path d="M740 2665 c0 -8 7 -15 15 -15 8 0 15 7 15 15 0 8 -7 15 -15 15 -8 0 -15 -7 -15 -15z"/>
    <path d="M4020 2669 c0 -9 11 -28 25 -43 20 -22 25 -37 25 -81 0 -62 -7 -85 -25 -85 -8 0 -11 -8 -8 -18 8 -32 -85 -102 -135 -102 -9 0 2 9 25 21 23 11 48 28 55 37 10 12 10 14 1 8 -9 -5 -13 1 -13 18 0 35 -13 33 -27 -4 -13 -34 -24 -37 -47 -15 -14 14 -19 14 -55 -4 -90 -47 -181 -35 -243 30 -34 36 -38 46 -38 92 l-1 52 -29 -35 c-43 -50 -80 -129 -80 -168 0 -23 8 -42 28 -61 27 -27 30 -28 126 -26 l98 2 38 42 c21 22 44 41 51 41 7 0 32 -19 56 -42 40 -39 42 -43 26 -60 -15 -17 -14 -17 23 1 21 10 57 27 78 37 22 11 53 38 70 62 22 31 35 41 48 36 22 -7 24 5 3 20 -13 10 -14 19 -4 61 8 38 8 61 0 93 -13 46 -70 120 -71 91z m-505 -219 c-18 -36 -22 -75 -11 -109 11 -32 -12 -18 -25 15 -9 25 7 80 32 111 19 22 20 15 4 -17z" style="fill: rgb(119, 93, 186);"/>
    <path d="M291 2576 c-8 -9 -20 -16 -29 -16 -14 0 -14 -2 0 -17 9 -10 14 -22 12 -28 -2 -5 10 -10 26 -10 20 0 30 5 30 16 0 8 5 20 12 27 9 9 9 12 -1 12 -8 0 -19 7 -25 16 -11 14 -13 14 -25 0z" style="fill: rgb(205, 166, 4);"/>
    <path d="M423 2564 c-8 -20 13 -42 27 -28 12 12 3 44 -11 44 -5 0 -12 -7 -16 -16z" style=""/>
    <path d="M596 2571 c-3 -5 0 -14 8 -20 10 -8 16 -8 25 2 6 8 8 17 4 20 -9 10 -31 9 -37 -2z"/>
    <path d="M1235 2570 c-8 -14 3 -30 21 -30 8 0 14 9 14 20 0 21 -24 28 -35 10z"/>
    <path d="M4012 2553 c4 -21 33 -25 33 -3 0 8 -8 16 -18 18 -14 3 -18 -1 -15 -15z"/>
    <path d="M1150 2500 c-13 -8 -13 -11 2 -27 21 -20 45 -5 35 21 -7 18 -16 20 -37 6z"/>
    <path d="M2090 2462 c-20 -2 -36 -21 -74 -87 l-48 -85 30 -41 c31 -41 31 -41 97 -41 69 0 82 6 116 54 l20 28 -51 85 c-28 46 -54 86 -58 88 -4 1 -18 1 -32 -1z" style="fill: rgb(225, 75, 75);"/>
    <path d="M393 2442 c-151 -54 -231 -171 -221 -321 6 -74 25 -120 72 -169 52 -56 100 -75 199 -79 l87 -4 0 50 c0 85 34 157 113 238 l70 73 -18 40 c-10 23 -23 44 -28 47 -6 4 -7 1 -3 -6 5 -7 5 -23 2 -37 l-7 -25 -33 26 c-18 14 -37 25 -42 25 -5 0 -3 -4 5 -9 11 -7 11 -13 -2 -32 -9 -13 -14 -32 -11 -45 3 -12 -2 -36 -10 -53 -16 -30 -17 -31 -46 -16 -16 8 -32 19 -35 25 -3 5 -10 10 -14 10 -13 0 -61 -51 -61 -65 0 -6 22 -22 50 -35 40 -19 47 -26 38 -37 -7 -9 -22 -11 -43 -7 l-33 6 19 -68 c24 -87 23 -99 -3 -49 -21 42 -90 111 -120 121 -11 3 -18 15 -18 30 0 13 1 24 3 24 1 0 20 -7 42 -15 22 -8 55 -14 73 -15 29 0 22 6 -58 47 -96 50 -109 67 -91 116 7 17 7 27 1 27 -19 0 -10 39 16 67 21 24 23 24 14 5 -13 -28 -2 -52 14 -31 6 8 22 23 36 32 13 9 19 17 12 17 -23 0 -1 22 42 41 46 21 121 24 180 8 44 -12 122 -85 132 -123 9 -37 24 -32 24 8 0 43 -62 115 -126 145 -65 31 -156 36 -221 13z" style="fill: rgb(174, 162, 162);"/>
    <path d="M3323 2424 c-3 -8 -1 -20 6 -27 14 -14 47 15 37 32 -10 16 -36 13 -43 -5z"/>
    <path d="M520 2345 c-12 -14 -12 -18 1 -26 28 -17 60 -1 58 31 0 10 -2 11 -6 3 -6 -16 -30 -17 -35 -2 -2 7 -9 5 -18 -6z"/>
    <path d="M457 2343 c-4 -3 -7 -18 -7 -32 0 -23 -1 -23 -13 -7 -9 13 -23 17 -52 14 -33 -3 -37 -5 -20 -13 11 -5 32 -18 47 -28 35 -26 56 -11 55 38 -1 38 -1 38 -10 28z" style="fill: rgb(194, 167, 167);"/>
    <path d="M3777 2344 c-13 -13 -7 -24 14 -24 11 0 19 5 17 12 -5 14 -22 21 -31 12z"/>
    <path d="M789 2257 c3 -71 6 -83 27 -100 26 -20 63 -87 84 -152 7 -22 35 -92 62 -155 28 -63 54 -126 59 -140 22 -60 -25 20 -94 160 l-72 145 -36 -36 -36 -35 33 -40 c33 -38 33 -39 49 -19 16 19 16 19 10 -8 -4 -22 2 -37 28 -70 18 -23 50 -68 71 -99 40 -61 50 -66 79 -44 17 13 16 18 -16 83 -43 85 -108 261 -137 373 -26 97 -58 165 -92 197 l-23 22 4 -82z" style="fill: rgb(65, 64, 62);"/>
    <path d="M3270 2293 c-54 -20 -81 -83 -56 -132 30 -57 94 -68 145 -25 33 27 79 34 137 20 29 -7 31 -6 46 33 18 46 13 50 -25 21 -23 -18 -31 -19 -70 -10 -31 8 -49 20 -61 41 -26 44 -76 67 -116 52z m70 -43 c40 -40 11 -110 -45 -110 -30 0 -65 32 -65 60 0 27 43 70 70 70 11 0 29 -9 40 -20z" style="fill: rgb(47, 237, 237);"/>
    <path d="M360 2259 c0 -6 -8 -8 -19 -4 -21 6 -40 -12 -43 -45 -2 -18 6 -29 37 -47 50 -29 66 -28 88 2 27 37 27 69 0 73 -13 2 -23 10 -23 18 0 8 -9 14 -20 14 -11 0 -20 -5 -20 -11z" style="fill: rgb(204, 175, 175);"/>
    <path d="M967 2243 c-11 -10 -8 -41 5 -49 17 -11 40 26 27 43 -13 14 -22 16 -32 6z"/>
    <path d="M3537 2113 c-31 -76 -59 -145 -62 -154 -5 -13 5 -20 41 -33 26 -9 49 -14 51 -12 6 5 123 299 120 301 -4 3 -87 35 -91 35 -2 0 -28 -62 -59 -137z" style="fill: rgb(9, 215, 227);"/>
    <path d="M3993 2240 c-11 -5 -29 -22 -38 -38 -16 -26 -25 -30 -78 -36 -33 -3 -82 -6 -109 -6 -27 0 -58 -5 -69 -10 -43 -24 -16 -29 105 -23 l125 6 36 -31 c69 -61 160 -32 170 53 l5 40 -14 -30 c-22 -47 -50 -67 -87 -63 -32 3 -60 30 -46 44 4 4 18 1 32 -6 32 -17 57 2 53 39 -4 35 -47 37 -64 3 -9 -19 -13 -20 -23 -8 -15 18 2 49 34 65 25 12 -1 13 -32 1z" style="fill: rgb(6, 253, 253);"/>
    <path d="M732 2210 c-8 -13 -8 -20 -2 -20 6 0 13 7 17 15 9 24 -1 27 -15 5z"/>
    <path d="M2035 2158 c-16 -50 -87 -306 -87 -318 -2 -36 134 -360 151 -360 10 0 64 119 116 254 43 113 45 84 -22 314 l-36 122 -59 0 c-38 0 -60 -4 -63 -12z" style="fill: rgb(226, 51, 51);"/>
    <path d="M685 2146 c-38 -16 -82 -67 -106 -121 -18 -43 -35 -145 -24 -145 4 0 35 14 69 32 33 18 62 32 63 33 1 0 -3 18 -9 41 -13 48 -7 78 27 128 35 52 33 55 -20 32z"/>
    <path d="M743 2105 c-13 -19 -23 -46 -23 -59 0 -33 20 -76 36 -76 15 0 84 63 84 76 -1 13 -53 87 -65 91 -5 1 -20 -13 -32 -32z"/>
    <path d="M3382 2107 c-25 -29 16 -87 60 -87 24 0 32 7 48 42 14 32 16 44 7 50 -15 9 -33 11 -24 2 11 -12 -13 -44 -33 -44 -11 0 -25 12 -33 26 -11 22 -15 23 -25 11z" style="fill: rgb(51, 134, 134);"/>
    <path d="M3650 2050 c-7 -17 -11 -32 -9 -34 19 -14 403 -147 420 -144 30 4 47 33 33 56 -12 18 -372 152 -410 152 -15 0 -26 -10 -34 -30z m195 -31 c64 -23 114 -43 112 -45 -4 -4 -237 73 -245 81 -13 12 24 2 133 -36z" style="fill: rgb(44, 212, 189);"/>
    <path d="M3263 1994 c-8 -22 10 -49 32 -49 10 0 22 7 28 16 15 24 1 49 -28 49 -15 0 -28 -7 -32 -16z" style="fill: rgb(185, 212, 52);"/>
    <path d="M189 1907 c63 -92 130 -125 407 -202 111 -30 205 -55 208 -55 4 0 26 -21 50 -46 l43 -47 47 32 c25 18 46 35 46 38 0 11 -111 132 -140 153 -26 19 -31 19 -70 5 -61 -22 -143 -19 -191 5 -22 12 -42 26 -45 33 -3 8 -33 12 -87 13 -96 2 -173 27 -242 80 -25 19 -48 34 -51 34 -3 0 8 -19 25 -43z"/>
    <path d="M628 1887 c-38 -17 -68 -34 -68 -39 0 -5 15 -17 33 -29 25 -16 44 -19 92 -16 33 2 73 9 89 16 l29 12 -43 44 c-24 25 -49 45 -55 44 -5 0 -40 -15 -77 -32z"/>
    <path d="M3592 1886 c-18 -31 -25 -34 -73 -37 -49 -4 -53 -2 -73 28 -24 38 -26 38 -84 16 -43 -16 -43 -17 -41 -60 3 -37 -2 -48 -32 -81 -49 -51 -73 -89 -94 -147 -11 -32 -33 -63 -58 -86 l-40 -36 46 -11 c40 -11 48 -17 55 -45 7 -27 5 -37 -16 -65 l-25 -33 19 -35 c27 -50 34 -54 82 -43 37 8 46 6 72 -13 23 -16 28 -27 24 -45 -4 -13 0 -30 7 -39 11 -14 81 -54 93 -54 3 0 12 14 21 30 13 26 21 30 56 30 36 0 42 -3 52 -30 13 -33 25 -36 93 -19 44 11 44 12 44 55 0 36 5 47 25 60 22 14 32 15 64 5 51 -15 46 -17 82 35 l31 46 -26 27 c-21 22 -24 32 -18 56 7 26 15 31 55 39 l47 8 0 58 0 59 -44 6 c-38 6 -46 12 -55 37 -12 32 -9 41 22 75 l20 23 -33 49 -34 49 -42 -16 c-39 -15 -43 -14 -70 5 -25 18 -28 26 -25 66 l2 44 -45 12 c-62 15 -62 15 -84 -23z m72 -140 c188 -110 194 -364 10 -472 -61 -36 -156 -44 -221 -19 -62 24 -131 88 -159 150 -65 139 10 313 156 360 66 22 159 14 214 -19z" style="fill: rgb(94, 157, 66);"/>
    <path d="M3433 1695 c-89 -45 -134 -143 -112 -244 13 -63 43 -107 97 -145 35 -25 55 -31 110 -34 76 -4 117 9 170 53 52 44 95 148 78 191 -5 14 -7 14 -22 0 -35 -35 -94 -11 -94 38 0 29 39 58 68 51 23 -6 24 -5 12 12 -60 79 -105 103 -193 103 -47 0 -76 -6 -114 -25z m157 -5 c11 -11 20 -23 20 -28 0 -17 -32 -52 -47 -52 -21 0 -53 29 -53 47 0 15 35 53 50 53 6 0 19 -9 30 -20z m-161 -94 c9 -11 10 -20 1 -36 -21 -39 -83 -7 -67 34 8 20 50 21 66 2z m16 -166 c0 -29 -34 -40 -54 -17 -18 23 -2 49 28 45 20 -2 26 -8 26 -28z m242 -6 c8 -20 -21 -49 -41 -41 -9 4 -16 18 -16 32 0 20 5 25 25 25 14 0 28 -7 32 -16z m-123 -60 c22 -21 4 -54 -29 -54 -28 0 -43 33 -25 55 16 19 35 19 54 -1z" style="fill: rgb(240, 207, 120);"/>
    <path d="M3075 1850 c-55 -16 -117 -32 -137 -35 -30 -5 -60 -27 -135 -98 -54 -51 -141 -130 -193 -177 -52 -46 -123 -110 -157 -142 -34 -32 -70 -58 -80 -58 -10 0 -35 -17 -56 -38 l-36 -37 23 -50 c26 -57 111 -154 161 -185 37 -23 55 -19 90 20 l20 22 -25 17 c-81 52 -201 195 -185 221 12 19 34 10 50 -20 17 -33 152 -170 167 -170 10 0 235 200 373 331 39 36 85 74 103 83 17 9 32 22 32 28 0 12 44 120 96 236 23 52 23 83 0 81 -6 -1 -56 -14 -111 -29z m35 -45 c-11 -13 -10 -14 5 -9 15 6 16 5 5 -17 -7 -13 -29 -44 -49 -69 -19 -25 -37 -47 -38 -49 -2 -3 -11 3 -20 12 -16 16 -14 20 27 64 l45 47 -49 -44 -49 -43 -24 29 c-32 40 -29 52 15 63 20 5 53 14 72 19 19 6 43 11 54 11 15 1 16 -1 6 -14z m-199 -72 c13 -21 49 -66 81 -101 32 -35 58 -68 58 -73 0 -23 -29 -4 -88 59 -36 37 -59 58 -52 47 8 -11 34 -41 59 -67 25 -26 42 -50 39 -54 -7 -6 -91 74 -129 123 l-24 32 -180 -161 c-238 -212 -265 -233 -265 -209 0 10 179 176 377 349 l71 62 22 -27 21 -28 -16 33 c-13 28 -14 52 0 52 2 0 14 -17 26 -37z m-72 -127 c-20 -17 -109 -95 -198 -173 -89 -79 -167 -143 -173 -143 -18 0 24 42 211 206 95 85 178 151 184 147 6 -4 -3 -18 -24 -37z m-469 -360 c26 -50 -14 -77 -45 -30 -13 20 -14 28 -4 40 17 21 34 17 49 -10z" style="fill: rgb(59, 106, 109);"/>
    <path d="M1196 1703 c88 -244 82 -235 254 -393 85 -78 206 -194 268 -257 118 -119 147 -138 184 -123 22 8 22 9 -5 9 -36 1 -87 36 -87 60 0 31 137 180 167 181 37 1 19 -30 -63 -107 -86 -81 -88 -85 -69 -99 47 -35 96 -30 149 16 39 35 48 65 31 114 -7 19 -10 37 -8 40 8 8 -30 57 -41 53 -6 -2 -25 6 -43 18 -53 35 -483 415 -483 426 0 16 23 0 142 -106 62 -54 107 -91 99 -82 -8 10 -65 63 -127 118 -106 94 -123 105 -255 165 -78 35 -143 64 -145 64 -2 0 13 -44 32 -97z m167 -10 c64 -26 68 -30 65 -58 -3 -25 -9 -31 -41 -38 -30 -7 -37 -13 -32 -27 13 -41 -14 -26 -40 22 -26 48 -43 128 -27 128 4 0 38 -12 75 -27z m287 -273 c229 -202 256 -228 248 -235 -4 -4 -53 35 -110 86 -57 51 -156 140 -220 197 -65 58 -118 109 -118 114 0 14 22 -4 200 -162z m-22 -134 c111 -104 200 -191 198 -194 -6 -6 -43 26 -241 213 -77 73 -155 145 -172 160 -18 15 -33 32 -33 37 0 14 7 8 248 -216z m-142 49 c245 -233 310 -297 297 -293 -14 4 -340 308 -428 398 -108 112 -41 58 131 -105z m534 -257 c0 -31 -38 -78 -64 -78 -8 0 -19 15 -25 32 -11 31 -10 34 26 64 43 36 63 31 63 -18z" style="fill: rgb(78, 119, 223);"/>
    <path d="M3980 1754 c0 -8 -5 -14 -11 -14 -6 0 -4 -7 5 -15 18 -18 33 -19 50 -2 10 10 11 17 2 28 -14 18 -46 21 -46 3z" style="fill: rgb(227, 227, 71);"/>
    <path d="M254 1706 c-18 -8 -36 -27 -44 -45 -40 -97 108 -163 156 -69 39 75 -34 149 -112 114z m92 -53 c8 -18 9 -35 3 -44 -7 -11 -9 -10 -9 5 0 28 -29 56 -57 56 -27 0 -31 17 -5 22 29 7 56 -8 68 -39z" style="fill: rgb(70, 96, 132);"/>
    <path d="M518 1639 c-15 -11 -43 -41 -62 -67 -23 -32 -47 -52 -73 -61 -66 -23 -122 -60 -129 -85 -4 -16 5 -42 26 -80 17 -30 38 -84 46 -118 23 -96 77 -154 167 -179 48 -13 105 2 137 37 22 22 30 25 71 19 56 -8 114 13 124 45 4 12 4 41 1 63 -5 38 -2 48 39 106 25 36 45 70 45 77 0 15 -60 68 -100 89 l-29 15 19 -42 c21 -46 26 -112 11 -151 -17 -45 -71 -96 -108 -103 -21 -4 -39 -2 -46 5 -8 8 -7 11 6 11 29 0 96 69 107 111 28 104 -61 221 -167 218 l-38 -1 44 -14 c74 -23 122 -84 106 -135 -4 -10 -13 -19 -21 -19 -8 0 -14 -9 -14 -20 0 -51 -49 -100 -100 -100 -51 0 -100 49 -100 99 0 10 -7 24 -16 32 -10 8 -14 23 -12 41 6 37 -10 32 -40 -13 -31 -45 -28 -129 8 -178 32 -46 100 -75 156 -66 52 7 59 -7 14 -30 -54 -28 -133 -12 -190 38 -14 12 -10 5 9 -15 19 -21 53 -44 75 -53 40 -15 40 -15 6 -9 -63 11 -108 44 -135 98 -52 105 -19 241 73 295 24 14 61 41 81 59 43 39 67 46 127 39 l45 -5 -22 24 c-20 21 -75 44 -104 44 -5 -1 -22 -10 -37 -21z" style="fill: rgb(244, 22, 22);"/>
    <path d="M1086 1651 c-3 -5 -44 -34 -91 -65 -77 -51 -84 -58 -75 -77 11 -19 16 -16 104 45 l93 65 63 -90 c70 -102 155 -208 230 -289 70 -75 51 -42 -33 55 -37 44 -112 143 -165 219 -96 137 -114 157 -126 137z"/>
    <path d="M777 1593 c-12 -12 -7 -41 7 -46 22 -9 41 19 26 38 -14 16 -23 19 -33 8z"/>
    <path d="M1108 1537 c11 -19 27 -47 37 -63 17 -28 17 -29 -1 -8 -11 11 -31 36 -45 55 l-26 34 -57 -38 c-31 -20 -56 -41 -56 -45 0 -6 46 -84 106 -178 13 -21 15 -21 56 -7 60 21 139 12 190 -22 22 -14 62 -50 90 -78 40 -42 46 -45 27 -17 -13 19 -58 72 -100 117 -42 45 -109 127 -148 182 -40 56 -77 101 -82 101 -6 0 -2 -15 9 -33z" style="fill: rgb(92, 86, 86);"/>
    <path d="M511 1453 c-26 -32 -21 -41 11 -19 12 9 38 16 58 16 20 0 46 -7 58 -16 33 -23 39 -10 9 20 -37 37 -107 37 -136 -1z" style="fill: rgb(246, 29, 29);"/>
    <path d="M1725 1420 c10 -11 20 -20 23 -20 3 0 -3 9 -13 20 -10 11 -20 20 -23 20 -3 0 3 -9 13 -20z"/>
    <path d="M560 1407 c-32 -17 -44 -40 -36 -71 9 -37 45 -52 82 -35 16 8 30 22 32 32 11 55 -34 96 -78 74z" style="fill: rgb(254, 27, 27);"/>
    <path d="M3002 1398 c-18 -18 -14 -53 9 -74 19 -17 23 -17 47 -3 30 16 40 52 22 75 -15 17 -61 19 -78 2z" style="fill: rgb(170, 203, 33);"/>
    <path d="M1840 1315 c19 -19 36 -35 39 -35 3 0 -10 16 -29 35 -19 19 -36 35 -39 35 -3 0 10 -16 29 -35z"/>
    <path d="M944 1306 c-10 -26 4 -48 28 -44 17 2 23 10 23 28 0 18 -6 26 -23 28 -13 2 -25 -3 -28 -12z"/>
    <path d="M2892 1304 c-17 -12 -22 -24 -20 -46 4 -40 28 -55 65 -42 38 13 45 65 11 88 -12 9 -25 16 -28 16 -3 0 -16 -7 -28 -16z" style="fill: rgb(204, 186, 38);"/>
    <path d="M1157 1240 c-16 -5 -43 -20 -60 -33 -18 -13 -53 -29 -79 -34 -98 -21 -179 -94 -212 -191 -9 -27 -23 -42 -49 -55 -37 -17 -37 -17 -37 -81 0 -63 1 -65 30 -71 23 -5 34 -17 54 -61 24 -52 25 -57 9 -80 -16 -25 -15 -26 35 -77 l52 -51 30 17 c28 17 32 17 79 0 44 -15 51 -22 58 -53 l9 -35 63 -3 c68 -3 81 4 81 45 0 28 69 66 103 58 20 -5 30 3 66 54 23 34 40 61 38 61 -3 0 6 26 18 58 21 50 28 58 59 66 l36 10 0 66 0 67 -40 12 c-33 10 -41 17 -50 49 -5 20 -19 52 -30 69 -11 18 -17 39 -14 48 9 22 -73 115 -121 136 -43 20 -83 22 -128 9z m139 -41 c39 -24 54 -47 54 -83 0 -40 -17 -39 -24 2 -5 37 -30 67 -71 90 -12 7 -14 12 -6 12 7 0 29 -9 47 -21z m-37 -84 c114 -62 167 -201 127 -336 -19 -66 -79 -140 -139 -171 -96 -48 -223 -30 -305 45 -61 57 -84 107 -90 194 -5 82 11 142 53 198 79 102 236 134 354 70z" style="fill: rgb(98, 165, 69);"/>
    <path d="M1070 1081 c-79 -24 -142 -92 -156 -168 -3 -18 -10 -36 -15 -39 -15 -9 -9 -87 10 -129 10 -22 36 -57 59 -77 144 -130 391 -27 392 162 0 30 -3 40 -9 31 -12 -19 -41 -6 -41 18 0 23 23 34 39 18 15 -15 15 4 -1 40 -21 47 -40 73 -50 67 -5 -3 -5 -11 2 -19 16 -20 -5 -63 -35 -71 -28 -7 -60 14 -71 48 -9 30 21 66 58 70 l33 4 -55 27 c-55 27 -110 33 -160 18z m6 -66 c29 -29 26 -58 -8 -87 -44 -39 -102 -4 -92 54 12 60 57 75 100 33z m-6 -185 c38 -38 14 -100 -39 -100 -49 0 -80 44 -60 83 23 43 66 50 99 17z m210 -30 c8 -14 8 -26 0 -40 -19 -35 -80 -20 -80 20 0 40 61 55 80 20z" style="fill: rgb(204, 175, 99);"/>
    <path d="M2176 1141 c-65 -65 -68 -71 -62 -104 7 -39 70 -115 120 -146 58 -37 90 -29 159 39 l62 59 -25 17 c-44 29 -146 140 -159 173 -8 17 -16 31 -20 31 -4 0 -37 -31 -75 -69z m89 -11 c15 -17 16 -24 7 -45 -15 -32 -25 -31 -51 2 -20 24 -20 27 -5 45 21 23 27 23 49 -2z m-55 -65 l24 -26 -27 -27 -28 -27 -19 25 c-24 31 -24 39 -3 62 21 23 25 23 53 -7z" style="fill: rgb(106, 42, 219);"/>
    <path d="M2766 1194 c-9 -8 -16 -22 -16 -29 0 -15 26 -45 39 -45 13 0 41 36 41 53 0 9 -9 21 -19 27 -25 13 -27 13 -45 -6z" style="fill: rgb(204, 183, 51);"/>
    <path d="M3051 1187 c-11 -29 -110 -69 -135 -55 -17 10 -28 4 -86 -45 -30 -25 -32 -31 -21 -49 17 -27 -23 -116 -56 -124 -19 -5 -23 -13 -23 -48 0 -22 -3 -51 -6 -62 -4 -17 0 -23 21 -28 28 -7 59 -62 53 -95 -2 -9 5 -30 15 -45 11 -15 17 -37 14 -47 -4 -15 7 -28 46 -54 45 -31 54 -33 71 -21 30 19 134 -17 142 -50 6 -22 11 -24 75 -24 l69 0 0 33 c0 29 5 34 50 55 40 18 54 21 71 12 22 -12 46 2 96 59 21 24 21 27 7 49 -14 21 -14 31 -3 69 10 36 18 47 42 55 26 9 28 14 23 41 -3 16 -6 43 -6 59 0 23 -6 31 -28 39 -37 13 -79 93 -60 116 10 12 4 22 -37 59 -36 32 -57 43 -74 40 -35 -6 -106 29 -119 59 -11 23 -17 25 -72 25 -54 0 -61 -2 -69 -23z m176 -125 c166 -85 199 -303 63 -425 -168 -151 -430 -34 -430 192 0 115 62 208 165 246 54 20 149 14 202 -13z" style="fill: rgb(59, 161, 82);"/>
    <path d="M3026 1050 c-63 -25 -99 -60 -126 -123 -66 -152 37 -323 200 -335 73 -5 122 11 172 56 55 49 80 103 81 171 1 174 -169 295 -327 231z m85 -12 c0 -10 2 -10 6 0 2 6 14 12 26 12 27 0 107 -36 107 -47 0 -4 -23 -35 -52 -68 -32 -38 -59 -60 -73 -61 -13 -1 -30 -4 -38 -7 -9 -3 -27 3 -41 14 -33 26 -34 10 -1 -21 14 -13 25 -34 25 -47 0 -45 74 -51 91 -7 4 13 13 24 18 24 18 0 123 42 118 47 -3 2 -33 -3 -66 -13 -34 -9 -64 -14 -67 -11 -6 6 78 121 95 131 13 9 49 -37 66 -83 19 -56 19 -71 -2 -72 -17 -1 -17 -2 0 -6 20 -5 21 -13 5 -65 -21 -70 -97 -136 -175 -153 -28 -5 -33 -4 -33 12 -1 16 -1 17 -10 1 -8 -13 -17 -15 -39 -8 -49 14 -101 42 -95 51 3 5 -2 9 -10 9 -18 0 -61 72 -71 118 -5 27 -4 32 12 33 17 1 17 2 0 6 -16 4 -18 11 -12 41 9 53 52 123 70 115 10 -3 13 -1 10 9 -6 14 20 31 75 51 28 10 60 7 61 -5z m19 -208 c0 -11 -7 -20 -15 -20 -8 0 -15 9 -15 20 0 11 7 20 15 20 8 0 15 -9 15 -20z" style="fill: rgb(172, 137, 44);"/>
    <path d="M1533 1076 c-24 -21 -26 -26 -15 -50 15 -34 56 -44 82 -21 25 23 25 50 0 75 -26 26 -33 25 -67 -4z" style="fill: rgb(156, 227, 31);"/>
    <path d="M2642 1068 c-20 -20 -15 -66 8 -78 40 -21 88 16 73 57 -12 33 -57 45 -81 21z" style="fill: rgb(226, 171, 27);"/>
    <path d="M745 1050 c-7 -12 2 -30 16 -30 5 0 9 9 9 20 0 21 -15 27 -25 10z"/>
    <path d="M3582 1025 c-57 -48 -46 -139 21 -171 64 -31 134 10 144 83 5 39 2 46 -30 78 -44 44 -91 47 -135 10z m97 -10 c32 -16 58 -72 41 -89 -7 -7 -10 -2 -10 14 0 13 -7 32 -17 42 -15 16 -18 17 -33 3 -17 -16 -50 -11 -50 7 0 6 -6 5 -15 -2 -9 -8 -15 -9 -15 -2 0 13 40 42 58 42 7 0 26 -7 41 -15z" style="fill: rgb(208, 179, 34);"/>
    <path d="M1646 971 c-24 -27 -17 -72 13 -87 53 -27 100 30 67 80 -20 31 -56 34 -80 7z" style="fill: rgb(207, 165, 38);"/>
    <path d="M2061 952 c-7 -14 -21 -22 -36 -22 -30 0 -33 -15 -5 -30 15 -8 18 -17 13 -41 -6 -29 -5 -30 21 -18 19 9 32 9 51 1 23 -11 24 -10 19 16 -4 19 0 33 10 41 23 19 20 31 -8 31 -13 0 -30 10 -38 22 l-15 22 -12 -22z" style="fill: rgb(225, 225, 26);"/>
    <path d="M614 945 c-8 -21 2 -45 19 -45 8 0 20 7 27 15 10 12 10 18 0 30 -7 8 -19 15 -27 15 -7 0 -16 -7 -19 -15z"/>
    <path d="M2528 949 c-36 -21 -16 -79 27 -79 44 0 58 37 25 70 -23 23 -28 24 -52 9z" style="fill: rgb(230, 202, 29);"/>
    <path d="M2610 913 c0 -14 -7 -34 -15 -43 -14 -15 -14 -19 1 -31 13 -11 20 -11 42 2 36 20 41 62 10 83 -31 22 -38 20 -38 -11z" style="fill: rgb(217, 237, 54);"/>
    <path d="M1663 743 c-29 -48 -93 -153 -142 -233 -48 -80 -88 -146 -87 -147 1 -1 29 11 62 27 91 44 177 63 279 63 109 -1 176 -23 265 -89 l60 -44 53 39 c28 21 61 43 72 49 126 63 337 57 478 -14 27 -14 51 -23 53 -21 3 3 -57 106 -133 230 l-138 226 -62 1 c-120 0 -210 -30 -283 -96 l-39 -36 -49 42 c-68 57 -138 82 -247 87 l-90 4 -52 -88z m232 42 c66 -18 112 -43 168 -94 l37 -33 46 42 c65 60 139 91 233 97 l78 6 80 -134 c44 -74 80 -135 79 -136 -1 -1 -24 5 -51 14 -30 9 -89 16 -145 17 -121 1 -182 -18 -247 -80 -47 -44 -44 -49 7 -14 109 74 310 83 445 19 43 -20 63 -46 28 -35 -59 18 -136 34 -188 40 -107 13 -252 -30 -333 -99 l-32 -27 -43 36 c-114 94 -283 116 -462 61 -65 -19 -75 -19 -47 5 13 11 53 29 89 40 127 39 307 19 393 -45 47 -35 50 -31 10 10 -19 20 -60 48 -90 63 -48 23 -67 27 -150 26 -60 0 -116 -7 -154 -18 -32 -9 -59 -16 -61 -14 -1 2 21 44 51 93 29 50 64 109 78 133 24 40 28 42 74 42 26 0 74 -7 107 -15z" style="fill: rgb(175, 135, 86);"/>
    <path d="M1780 721 c-21 -7 -16 -9 26 -10 64 -1 145 -25 198 -58 l41 -26 -25 28 c-52 57 -171 89 -240 66z"/>
    <path d="M2269 716 c-39 -14 -88 -46 -109 -71 -19 -22 -6 -19 46 14 50 32 118 50 192 52 38 1 42 2 22 9 -39 12 -111 11 -151 -4z"/>
    <path d="M1750 661 c-17 -5 5 -9 65 -12 75 -4 102 -10 159 -37 37 -18 71 -32 75 -32 13 1 -47 43 -94 66 -51 24 -147 32 -205 15z"/>
    <path d="M2265 658 c-30 -11 -125 -75 -125 -85 0 -3 15 4 33 15 70 41 146 62 225 63 52 0 71 3 57 9 -28 12 -154 11 -190 -2z" style="fill: rgb(18, 18, 17);"/>
    <path d="M1594 750 c-32 -53 -41 -60 -68 -60 -30 0 -37 -9 -160 -205 -139 -223 -145 -240 -86 -270 37 -19 81 -19 172 1 101 23 273 23 371 0 63 -14 81 -22 94 -44 51 -82 104 -115 184 -115 80 1 132 34 182 115 36 57 291 81 467 44 129 -28 210 -9 210 48 0 12 -57 113 -126 224 -122 196 -126 202 -158 202 -30 0 -37 6 -70 60 -32 52 -56 75 -56 54 0 -17 77 -144 86 -144 7 0 15 -8 19 -17 3 -10 52 -94 107 -186 55 -92 98 -170 96 -172 -2 -3 -47 6 -99 19 -182 47 -330 42 -474 -15 -52 -21 -62 -30 -80 -68 -24 -50 -55 -70 -108 -71 -31 0 -46 7 -73 34 -19 19 -34 43 -34 54 0 14 -14 26 -50 41 -147 63 -306 72 -483 27 -60 -15 -111 -25 -114 -23 -7 8 210 376 222 377 10 0 85 128 85 144 0 21 -24 -2 -56 -54z" style="fill: rgb(130, 97, 71);"/>
    <path d="M2984 435 c-4 -9 -2 -21 4 -27 15 -15 44 -1 40 19 -4 23 -36 29 -44 8z" style="fill: rgb(216, 200, 71);"/>
    <path d="M1675 413 c-76 -9 -248 -64 -259 -82 -3 -4 28 1 67 12 96 24 259 26 347 3 36 -10 89 -31 119 -47 38 -20 68 -29 100 -29 l46 0 -25 20 c-102 80 -285 137 -395 123z"/>
    <path d="M2445 414 c-11 -2 -45 -9 -75 -15 -63 -12 -181 -67 -225 -103 l-30 -25 42 -1 c26 0 56 8 75 20 18 11 69 32 113 46 100 33 262 37 364 10 35 -9 66 -14 68 -12 7 7 -86 46 -145 61 -60 16 -157 26 -187 19z"/>
    <path d="M2021 219 c14 -27 50 -49 81 -49 25 0 89 43 78 53 -3 2 -42 7 -87 9 -76 4 -81 3 -72 -13z"/>
    <path d="M1817 144 c-12 -12 -8 -42 6 -47 21 -8 39 8 35 29 -3 19 -29 30 -41 18z" style="fill: rgb(106, 234, 70);"/>
    <path d="M2346 134 c-8 -21 1 -34 24 -34 19 0 30 17 23 38 -7 17 -40 15 -47 -4z" style="fill: rgb(198, 194, 50);"/>
  </g>
</svg>